<?xml version="1.0" encoding="UTF-8"?>
<svg xmlns="http://www.w3.org/2000/svg" id="Layer_1" data-name="Layer 1" viewBox="0 0 24 24" width="512" height="512"><path d="M8,5c0-2.206-1.794-4-4-4S0,2.794,0,5c0,1.858,1.279,3.411,3,3.858v7.284c-1.721,.447-3,2-3,3.858,0,2.206,1.794,4,4,4s4-1.794,4-4c0-1.858-1.279-3.411-3-3.858v-7.284c1.721-.447,3-2,3-3.858Zm13,11.142V7c0-1.654-1.346-3-3-3h-5.086l2.293-2.293-1.414-1.414-3.256,3.256c-.774,.775-.775,2.036,0,2.812l3.256,3.256,1.414-1.414-2.214-2.203h5.007c.552,0,1,.449,1,1v9.142c-1.721,.447-3,2-3,3.858,0,2.206,1.794,4,4,4s4-1.794,4-4c0-1.858-1.279-3.411-3-3.858Z"/></svg>
